<svg width="320" height="96" viewBox="0 0 320 96" fill="none" xmlns="http://www.w3.org/2000/svg">
<rect width="320" height="56" fill="white"/>
<path d="M299.9 17H277V21H299.9V17Z" fill="#81B3D2"/>
<path d="M299.9 26H277V30H299.9V26Z" fill="#81B3D2"/>
<path d="M299.9 35H277V39H299.9V35Z" fill="#81B3D2"/>
<path d="M252 0H67L146.81 90.1011C153.849 97.9663 165.25 97.9663 172.289 90.1011L252 0Z" fill="#81B3D3"/>
<path d="M109.83 0.696915L159.004 58.8395L207.882 1.09515L109.83 0.696915Z" fill="#23A9E1"/>
<path d="M187.954 17.2237C182.898 17.2237 177.941 17.3233 172.884 17.3233C178.833 10.4537 181.51 11.1506 187.954 17.2237Z" fill="white"/>
<path d="M147.107 22.5999C155.931 22.5999 164.755 22.5999 173.578 22.5999C171.595 21.4052 166.936 15.5312 164.358 17.7215C164.16 17.9207 156.922 8.86077 152.163 13.2414C147.999 17.0246 146.116 12.7436 141.357 15.7304C136.102 19.3145 144.529 21.4052 147.107 22.5999Z" fill="white"/>
<path d="M159.302 0H108.838V22.4008L159.004 83.6298L159.302 83.2315L209.567 23.0977V0H159.302ZM121.429 1.79207H126.882V18.9163L121.429 12.4449V1.79207ZM120.636 11.5489L115.679 5.67488V1.79207H120.636V11.5489ZM139.771 8.86077L134.12 1.79207H139.771V8.86077ZM133.227 12.644L127.675 1.79207H133.227V12.644ZM127.576 3.38501L133.029 14.0379C130.253 16.1286 128.369 18.0202 127.576 18.9163V3.38501ZM134.02 2.88722L139.572 9.75681C138.482 10.3542 137.391 11.0511 136.499 11.6484C135.607 12.2458 134.814 12.8431 134.02 13.4405V2.88722ZM140.564 2.6881L145.323 6.86959C143.637 7.5665 142.051 8.36298 140.564 9.15945V2.6881ZM146.116 6.57091L140.762 1.79207H146.711V6.37179C146.413 6.37179 146.314 6.47135 146.116 6.57091ZM165.052 1.79207H170.009L165.052 4.18149V1.79207ZM159.302 1.79207H163.664L159.302 3.88281V1.79207ZM158.409 3.78325L154.245 1.79207H158.409V3.78325ZM152.957 4.28105L147.9 1.79207H152.957V4.28105ZM147.405 2.38942L152.064 4.67928C150.478 5.07752 148.892 5.47576 147.405 5.97355V2.38942ZM153.75 2.38942L157.121 3.98237C155.931 4.08193 154.84 4.18149 153.651 4.38061V2.38942H153.75ZM164.061 2.48898V4.38061C162.97 4.18149 161.879 4.08193 160.69 3.98237L164.061 2.48898ZM170.505 2.38942V6.07311C169.018 5.57532 167.431 5.07752 165.746 4.67928L170.505 2.38942ZM171.199 1.79207H177.048L171.695 6.57091C171.496 6.47135 171.397 6.47135 171.199 6.37179V1.79207ZM184.682 1.79207H190.234L184.682 12.644V1.79207ZM178.139 1.79207H183.79L178.139 8.76121V1.79207ZM177.346 2.6881V9.15945C175.859 8.36298 174.272 7.5665 172.587 6.86959L177.346 2.6881ZM183.889 2.88722V13.3409C183.195 12.8431 182.402 12.3453 181.609 11.748C180.617 11.0511 179.428 10.3542 178.238 9.65725L183.889 2.88722ZM190.234 3.38501V18.518C189.144 17.5224 187.359 15.8299 184.781 13.9383L190.234 3.38501ZM191.027 19.3145V1.79207H196.48V13.1418L191.027 19.3145C191.126 19.4141 191.027 19.4141 191.027 19.3145ZM197.273 1.79207H202.23V6.47135L197.273 12.2458V1.79207ZM114.985 1.79207V4.67928L112.506 1.79207H114.985ZM127.675 19.9118L127.774 20.0114C127.774 20.0114 131.344 16.1286 136.895 12.4449C142.15 8.96033 150.081 4.8784 159.004 4.97796C167.828 4.97796 175.958 9.15945 181.113 12.644C186.665 16.3277 190.333 20.111 190.432 20.2105L186.566 24.6907C179.725 25.5867 174.768 30.7638 168.125 29.6687C164.755 29.0713 164.655 27.1797 163.664 25.1885C162.97 23.6951 161.78 23.8942 160.194 23.2969C158.806 22.6995 157.914 21.6044 155.039 22.2017C152.56 22.7991 152.263 26.6819 149.09 26.4828C147.405 26.3832 147.305 23.9938 144.926 21.007C138.68 13.4405 132.831 14.5356 128.865 21.5048L158.905 57.2466L127.675 19.9118ZM202.924 5.47576V1.79207H206.097L202.924 5.47576Z" fill="#491213"/>
<path d="M154.939 70.5875L159.004 64.1161L162.97 70.5875L159.004 77.0589L154.939 70.5875Z" fill="#23A9E1"/>
<path d="M131.938 32.1576C132.434 32.755 132.831 33.4519 132.732 34.2484C132.632 34.8457 131.839 35.8413 132.434 36.0404C133.128 35.1444 133.921 34.1488 134.615 33.2528C134.02 33.0537 129.262 27.4783 129.262 26.7814C128.171 27.3788 127.18 27.9761 126.089 28.4739C126.287 29.1709 127.378 28.4739 127.973 28.4739C128.766 28.5735 129.361 29.0713 129.956 29.6687C128.27 31.0625 124.106 34.6466 123.61 34.7462C123.412 34.7462 122.52 34.1488 122.52 34.6466C122.52 34.9453 123.412 35.6422 123.511 35.8413C124.205 36.7374 124.998 37.6334 125.692 38.5294C126.287 38.2307 125.593 37.8325 125.891 37.3347C126.188 36.9365 130.749 33.0537 131.938 32.1576Z" fill="white"/>
<path d="M126.684 25.1885C127.08 25.0889 127.279 25.5867 127.675 25.0889C126.882 24.0933 126.089 23.1973 125.296 22.2017C124.899 21.8035 124.503 21.3057 124.602 22.2017C124.701 22.7991 118.554 27.8766 118.158 27.9761C117.662 28.1753 117.364 27.5779 117.067 28.0757C117.761 28.9717 118.554 29.7682 119.248 30.6642C119.446 30.9629 119.744 31.2616 119.942 31.5603C120.24 31.859 120.14 30.8634 120.14 30.9629C120.041 30.4651 120.636 30.0669 121.033 29.7682C122.52 28.4739 126.287 25.1885 126.684 25.1885Z" fill="white"/>
<path d="M117.959 24.2925C116.175 24.7903 114.291 24.0933 113.795 22.3013C113.3 20.5092 114.39 18.518 115.877 17.5224C117.265 16.5268 119.446 16.5268 120.24 18.3189C120.537 19.1154 120.438 20.0114 120.14 20.8079C119.942 21.3057 119.546 21.8035 120.24 22.1022C121.132 21.007 121.925 19.9118 122.817 18.8167C121.727 18.2193 121.33 17.1242 120.537 16.2282C119.645 15.133 118.455 14.1374 117.067 13.9383C114.192 13.5401 111.515 16.5268 111.317 19.1154C111.218 20.6088 111.713 21.903 112.506 23.0977C113.3 24.0933 114.39 24.6907 114.886 25.8854C115.183 25.985 117.563 24.8898 118.158 24.5911C118.058 24.4916 118.058 24.392 117.959 24.2925C117.959 24.2925 117.265 24.4916 117.959 24.2925Z" fill="white"/>
<path d="M156.922 60.532C155.733 59.7355 152.957 55.8527 152.362 55.2554C152.263 55.1558 152.163 54.9567 152.064 54.8571C152.064 54.8571 151.767 55.0563 151.866 55.0563C151.668 55.1558 151.965 55.6536 151.767 55.9523C150.974 57.147 146.017 60.9303 145.818 61.1294C145.223 61.5276 144.629 60.9303 144.331 61.4281C145.025 62.3241 147.107 64.9126 147.305 65.0122C147.801 65.1117 147.405 64.2157 147.504 64.0166C147.603 63.6184 150.081 61.6272 150.974 60.8307C151.271 60.532 151.668 61.2289 151.866 61.5276C152.163 62.0254 152.362 62.5232 152.163 63.1206C152.064 63.5188 151.469 64.0166 151.866 64.3153C152.461 63.6184 154.245 61.5276 154.444 61.3285C154.741 61.0298 153.849 61.3285 153.948 61.2289C153.551 61.4281 153.254 61.4281 152.857 61.2289C152.758 61.1294 151.767 60.1338 151.866 60.0342C152.263 59.636 152.857 59.0386 153.353 58.9391C154.245 58.74 154.939 60.4325 155.039 61.0298C155.138 61.6272 155.138 62.2245 154.939 62.8219C154.84 63.2201 154.444 63.5188 154.939 63.7179C155.633 62.7223 156.327 61.8263 157.021 60.8307C157.22 60.6316 157.021 60.532 156.922 60.532C157.121 60.532 156.823 60.4325 156.922 60.532Z" fill="white"/>
<path d="M146.81 56.3505C148.991 54.4589 149.288 51.273 147.603 49.0827C145.719 46.5937 142.249 45.9964 139.87 47.9876C137.689 49.8792 137.391 52.9655 139.077 55.2554C141.059 57.9435 144.232 58.2422 146.81 56.3505C147.999 55.4545 146.711 56.4501 146.81 56.3505ZM146.314 51.6712C145.719 53.1646 144.133 54.7576 142.646 55.3549C140.861 56.0519 139.572 54.5585 140.266 52.7664C140.96 51.273 142.447 49.6801 143.935 49.0827C145.818 48.3858 147.008 49.9787 146.314 51.6712C146.413 51.4721 145.917 52.5673 146.314 51.6712Z" fill="white"/>
<path d="M140.465 41.8149C140.96 41.9144 141.357 42.3127 141.753 41.8149C141.059 40.9188 140.266 40.0228 139.572 39.2263C138.977 39.525 139.572 39.7241 139.374 40.2219C139.176 40.6202 136.796 41.0184 136.202 41.118C136.4 40.5206 137.094 38.5294 137.391 38.3303C137.887 37.9321 138.284 38.7285 138.68 38.2307C137.788 37.1356 136.896 36.0404 136.003 34.9453C135.706 34.5471 135.408 33.9497 135.012 34.2484C135.012 34.2484 135.012 35.7418 134.913 35.9409C134.814 36.14 134.02 39.525 133.029 40.421C132.533 40.8193 130.848 42.3127 130.352 42.5118C129.856 42.7109 129.559 41.9144 129.162 42.5118C129.956 43.5074 130.848 44.503 131.641 45.4986C131.74 45.5981 132.236 46.3946 132.434 46.3946C132.93 46.4942 132.533 45.4986 132.533 45.2995C132.732 44.9012 135.012 42.6114 136.003 42.4122C137.193 42.2131 138.977 41.7153 140.465 41.8149C140.762 41.9144 140.068 41.8149 140.465 41.8149Z" fill="white"/>
<path d="M134.219 22.7991C130.253 22.5999 131.839 18.8167 134.615 18.0202C137.193 17.2237 142.646 19.7127 144.331 21.4052C141.555 22.3013 137.986 22.1021 135.012 22.3013C134.814 19.1154 134.02 20.2105 134.219 22.7991Z" fill="#DC6243"/>
<path d="M143.637 35.244C135.111 35.1444 140.861 22.0026 143.736 22.7991C147.107 23.8942 146.711 35.3435 143.637 35.244Z" fill="#DC6243"/>
<path d="M149.685 30.9629C148.892 33.4519 147.305 33.9497 147.504 30.8634C147.702 27.3788 149.982 28.1753 152.362 26.881C154.345 25.7858 155.435 21.7039 158.905 24.0933C160.491 25.1885 162.276 24.2925 162.772 25.8854C162.772 25.7858 158.31 36.14 160.789 36.14C155.832 36.14 158.013 30.266 159.897 26.2836C158.112 27.1797 155.138 32.9541 157.517 33.8501C156.228 35.5426 152.362 37.733 150.379 36.14C148.892 35.0449 149.685 32.9541 149.685 30.9629Z" fill="#DC6243"/>
<path d="M153.75 40.5206C150.28 41.5162 145.719 39.3259 151.271 38.2307C154.741 37.5338 158.409 38.9277 153.75 40.5206C153.849 40.5206 153.651 40.5206 153.75 40.5206Z" fill="#DC6243"/>
<path d="M158.112 40.421C157.418 38.7285 158.707 36.8369 160.789 38.2307C162.573 39.4255 159.897 41.3171 158.112 40.421Z" fill="#DC6243"/>
<path d="M155.138 45.0008C152.758 44.3039 144.728 44.4034 149.982 42.2131C151.668 41.6158 160.095 42.4122 155.138 45.0008Z" fill="#DC6243"/>
<path d="M165.548 48.2862C164.16 47.0915 162.673 46.992 161.384 48.2862C159.599 45.0008 153.155 46.0959 150.081 45.5981C151.668 49.6801 164.755 50.4765 165.548 48.2862Z" fill="#DC6243"/>
<path d="M163.664 50.7752C160.491 50.6757 157.021 50.1779 154.146 50.8748C156.03 51.3726 160.491 52.6668 156.327 53.762C157.815 55.9523 160.293 55.7532 161.879 53.8615C161.185 53.5629 160.888 53.1646 160.293 52.7664C161.879 52.4677 163.466 51.5717 163.664 50.7752Z" fill="#DC6243"/>
<path d="M167.233 46.8924C161.979 43.8061 163.267 41.5162 167.63 39.3259C169.91 38.2307 174.867 34.1488 176.949 35.4431C173.677 39.3259 170.406 43.1092 167.233 46.8924Z" fill="#DC6243"/>
<path d="M163.466 39.6246C159.004 35.0449 170.108 35.4431 171.893 33.8501C173.182 34.2484 182.6 25.5867 184.88 26.1841C183.195 28.0757 179.725 34.2484 177.147 34.2484C175.165 34.2484 173.182 33.9497 171.695 35.3435C169.513 37.4343 165.845 38.4299 163.466 39.6246Z" fill="#F49774"/>
<path d="M164.953 34.0493C162.474 35.3435 160.194 30.1664 164.457 30.6642C167.233 30.9629 170.108 30.4651 172.686 30.8634C170.703 33.1532 168.026 34.4475 164.953 34.0493Z" fill="#F4B1A4"/>
<path d="M177.445 52.2686C177.643 52.866 177.742 53.5629 177.643 54.2598C177.544 55.1558 176.652 57.147 175.462 56.5496C174.272 55.9523 173.281 54.8571 172.289 53.9611C173.083 53.0651 173.777 52.2686 175.165 52.6668C175.561 52.7664 175.859 52.6668 175.462 52.3682C175.065 52.169 172.389 50.377 172.19 50.5761C171.893 50.8748 172.686 51.4721 172.389 52.0695C172.19 52.4677 171.794 52.866 171.496 53.2642C170.802 52.6668 169.613 51.9699 170.406 50.9743C170.901 50.2774 171.695 49.7796 172.488 49.6801C173.083 49.5805 174.272 50.0783 174.471 49.4809C173.38 48.9831 172.289 48.4853 171.199 47.888C171.397 48.6845 167.927 52.3682 167.134 53.3638C167.035 53.4633 166.44 53.9611 166.44 54.1602C166.44 54.5585 167.035 54.2598 167.134 54.2598C167.63 54.0607 173.876 59.3373 174.074 59.7355C174.173 60.0342 173.876 60.3329 174.074 60.4325C174.074 60.4325 174.272 60.6316 174.371 60.6316C174.768 60.1338 178.833 54.658 179.725 54.4589C178.932 53.2642 178.139 52.0695 177.346 50.7752C176.751 51.0739 177.346 51.7708 177.445 52.2686Z" fill="white"/>
<path d="M171.298 58.9391C169.216 57.6448 165.746 60.2333 165.25 60.4325C164.259 60.9303 163.466 59.9347 163.961 58.9391C164.457 58.1426 165.349 57.7444 166.242 57.6448C166.539 57.6448 167.531 57.8439 167.729 57.6448C167.828 57.4457 167.927 57.4457 167.729 57.3461C166.837 56.7488 166.043 56.1514 165.151 55.6536C164.953 56.7488 163.763 57.3461 163.069 58.043C162.276 58.9391 161.582 59.9347 161.582 61.2289C161.582 62.3241 162.276 63.3197 163.267 63.917C164.358 64.5144 165.548 64.0166 166.539 63.4192C167.134 63.021 167.828 62.5232 168.423 62.2245C169.414 61.7267 170.703 62.125 170.406 63.5188C170.108 64.6139 169.018 65.6095 168.026 65.8087C167.431 66.0078 166.737 65.9082 166.143 65.7091C165.746 65.6095 165.151 65.0122 164.953 65.6095C166.143 66.406 167.233 67.302 168.423 68.0985C168.522 67.302 168.919 67.0034 169.513 66.5056C170.207 65.9082 170.901 65.2113 171.496 64.4148C172.686 62.7223 173.083 60.3329 171.298 58.9391Z" fill="white"/>
<path d="M171.298 58.9391C170.703 58.4413 172.289 59.5364 171.298 58.9391V58.9391Z" fill="white"/>
<path d="M207.683 19.5136C206.989 20.2105 199.355 17.2237 198.76 16.726C198.463 16.6264 198.463 15.4317 198.066 15.9295C197.67 16.4273 197.273 16.9251 196.877 17.4229C196.48 17.9207 196.084 18.4185 195.588 18.9163C195.29 19.2149 195.092 19.4141 195.588 19.6132C196.381 19.2149 200.942 26.881 200.545 28.0757C199.851 28.4739 193.704 22.9982 193.506 22.6995C193.407 22.5999 193.803 21.7039 193.308 21.8035C193.109 21.8035 192.614 22.6995 192.415 22.8986C192.118 23.2969 191.82 23.5955 191.523 23.9938C191.82 24.4916 192.019 23.9938 192.514 23.9938C192.911 24.0933 194.299 25.288 194.696 25.6863C194.002 25.6863 192.019 25.7858 191.82 25.7858C190.928 25.8854 191.424 25.0889 190.829 24.8898C190.036 25.7858 189.342 26.6819 188.549 27.6775C188.152 28.1753 187.656 28.7726 187.26 29.2704C187.161 29.37 187.26 29.2704 187.26 29.37C187.557 29.6687 187.359 29.5691 187.855 29.37C188.35 29.1709 194.398 34.2484 194.596 34.5471C194.993 34.9453 194.398 35.5426 194.993 35.7418C195.588 35.0449 196.183 34.2484 196.778 33.5515C196.877 33.4519 196.877 33.4519 196.778 33.3523C196.381 32.9541 196.282 33.5515 195.786 33.5515C195.29 33.4519 191.424 30.1664 189.937 28.9717C191.721 28.8722 197.174 28.6731 198.066 28.6731C198.364 28.6731 199.157 29.5691 199.157 29.8678C199.058 30.266 198.661 30.4651 199.256 30.6642C199.752 30.0669 200.248 29.5691 200.743 28.9717L200.942 28.6731C201.041 28.5735 201.041 28.5735 201.14 28.3744L201.338 28.1753C201.735 27.6775 203.123 26.1841 202.924 26.0845C202.429 25.6863 202.23 26.5823 201.636 25.985C201.338 25.7858 200.446 24.1929 200.248 23.7947C199.95 23.3964 200.842 22.8986 201.239 22.6995C202.032 22.2017 204.412 21.5048 204.709 22.9982C204.709 23.2969 204.412 23.496 204.61 23.6951C204.61 23.6951 204.808 23.8942 204.907 23.8942C205.106 23.6951 207.287 21.1066 208.179 19.9118C207.882 19.7127 207.782 19.6132 207.683 19.5136ZM200.347 21.7039C200.446 21.7039 200.545 21.6044 200.347 21.7039C200.049 21.903 199.653 22.2017 199.355 22.5004C198.86 21.6044 198.364 20.7083 197.769 19.8123C198.959 20.3101 200.148 20.8079 201.239 21.3057C201.041 21.4052 200.743 21.5048 200.347 21.7039Z" fill="white"/>
<path d="M190.73 32.8545C188.35 30.8634 185.178 31.4607 183.195 33.651C181.311 35.9409 181.51 39.3259 183.79 41.2175C186.07 43.1092 189.441 42.6114 191.325 40.4211C193.208 38.1312 193.109 34.7462 190.73 32.8545ZM190.432 39.4255C190.432 39.4255 190.432 39.525 190.432 39.4255C189.144 40.7197 187.062 39.525 185.971 38.7285C184.88 37.9321 182.898 36.14 184.087 34.6466C185.178 33.3523 187.161 34.4475 188.251 35.1444C189.441 35.9409 191.622 37.733 190.532 39.3259C190.631 39.2263 190.631 39.2263 190.432 39.4255Z" fill="white"/>
<path d="M190.73 32.8546C190.432 32.6554 191.92 33.8501 190.73 32.8546V32.8546Z" fill="white"/>
<path d="M190.432 39.5255C190.432 39.4255 190.432 39.4255 190.432 39.5255C190.532 39.4255 190.532 39.4255 190.532 39.4255C190.432 39.4255 190.432 39.5255 190.432 39.5255Z" fill="white"/>
<path d="M184.186 41.9144C184.286 42.014 184.484 42.2131 184.186 41.9144C181.311 39.7241 177.941 40.3215 175.759 43.0096C174.768 44.2043 173.777 45.399 172.785 46.5937C173.182 47.0915 173.578 46.4942 174.074 46.7928C174.471 47.0915 180.221 51.8704 180.32 52.169C180.518 52.6668 180.023 52.6668 180.419 53.0651C180.617 53.1646 184.88 47.888 185.277 46.8924C186.169 45.1003 185.574 43.2087 184.186 41.9144ZM182.898 48.6845C182.699 48.9832 182.898 48.784 182.204 49.3814C181.906 49.6801 175.859 44.7021 176.057 44.503C176.85 43.607 178.635 42.91 179.626 43.2087C181.807 43.7065 184.781 46.3946 182.898 48.6845Z" fill="white"/>
</svg>
